<svg width="180" height="180" viewBox="0 0 180 180" fill="none" xmlns="http://www.w3.org/2000/svg">
<g clip-path="url(#clip0_80410_57)">
<rect width="180" height="180" rx="46" fill="black"/>
</g>
<g clip-path="url(#clip1_80410_57)">
<path d="M90.0017 32.2612C58.1212 32.2612 32.2644 58.118 32.2644 89.9985C32.2644 121.879 58.1212 147.736 90.0017 147.736C121.882 147.736 147.739 121.879 147.739 89.9985C147.739 58.118 121.882 32.2612 90.0017 32.2612ZM90.0017 144.564C59.8514 144.564 35.4364 120.117 35.4364 89.9985C35.4364 59.8803 59.8834 35.4333 90.0017 35.4333C120.12 35.4333 144.567 59.8803 144.567 89.9985C144.567 120.117 120.12 144.564 90.0017 144.564Z" fill="white"/>
<path d="M90.0034 43.4099C64.2747 43.4099 43.4163 64.2684 43.4163 89.997C43.4163 115.726 64.2747 136.584 90.0034 136.584C115.732 136.584 136.591 115.726 136.591 89.997C136.591 64.2684 115.732 43.4099 90.0034 43.4099ZM90.0034 133.316C66.0691 133.316 46.6844 113.931 46.6844 89.997C46.6844 66.0627 66.0691 46.678 90.0034 46.678C113.938 46.678 133.322 66.0627 133.322 89.997C133.322 113.931 113.938 133.316 90.0034 133.316Z" fill="white"/>
<path d="M89.9959 55.4271C70.8997 55.4271 55.4241 70.9028 55.4241 89.9991C55.4241 109.095 70.8997 124.571 89.9959 124.571C109.092 124.571 124.568 109.095 124.568 89.9991C124.568 70.9028 109.092 55.4271 89.9959 55.4271ZM89.9959 121.399C72.6619 121.399 58.5961 107.333 58.5961 89.9991C58.5961 72.665 72.6619 58.5992 89.9959 58.5992C107.33 58.5992 121.396 72.665 121.396 89.9991C121.396 107.333 107.33 121.399 89.9959 121.399Z" fill="white"/>
</g>
<defs>
<clipPath id="clip0_80410_57">
<rect width="180" height="180" rx="46" fill="white"/>
</clipPath>
<clipPath id="clip1_80410_57">
<rect width="116" height="116" fill="white" transform="translate(32 32)"/>
</clipPath>
</defs>
</svg>
